<svg id="visual" viewBox="0 0 960 540" width="960" height="540" xmlns="http://www.w3.org/2000/svg" xmlns:xlink="http://www.w3.org/1999/xlink" version="1.1"><rect x="0" y="0" width="960" height="540" fill="#ffffff"></rect><path d="M0 346L137 398L274 383L411 392L549 345L686 339L823 379L960 329L960 541L823 541L686 541L549 541L411 541L274 541L137 541L0 541Z" fill="#ff6b35"></path><path d="M0 367L137 369L274 392L411 362L549 403L686 368L823 425L960 423L960 541L823 541L686 541L549 541L411 541L274 541L137 541L0 541Z" fill="#ea5b28"></path><path d="M0 394L137 403L274 402L411 405L549 416L686 440L823 442L960 435L960 541L823 541L686 541L549 541L411 541L274 541L137 541L0 541Z" fill="#d54b1b"></path><path d="M0 439L137 483L274 477L411 470L549 477L686 452L823 467L960 461L960 541L823 541L686 541L549 541L411 541L274 541L137 541L0 541Z" fill="#c03b0d"></path><path d="M0 480L137 498L274 503L411 500L549 500L686 514L823 493L960 516L960 541L823 541L686 541L549 541L411 541L274 541L137 541L0 541Z" fill="#ab2b00"></path></svg>